<svg xmlns="http://www.w3.org/2000/svg" xmlns:xlink="http://www.w3.org/1999/xlink" viewBox="0 0 375.19062 108.5906"><defs><style>.cls-1{fill:#ea6182;}.cls-2{fill:gray;}.cls-3{fill:#212121;}.cls-4{fill:url(#名称未設定グラデーション_88);}.cls-5{fill:url(#名称未設定グラデーション_2);}.cls-6{fill:url(#名称未設定グラデーション_196);}.cls-7{fill:url(#名称未設定グラデーション_23);}</style><linearGradient id="名称未設定グラデーション_88" x1="61.77541" y1="68.23638" x2="24.7728" y2="31.23377" gradientUnits="userSpaceOnUse"><stop offset="0" stop-color="#c2da75"/><stop offset="0.08532" stop-color="#add265"/><stop offset="0.26394" stop-color="#85c348"/><stop offset="0.40626" stop-color="#6dba36"/><stop offset="0.49353" stop-color="#64b72f"/><stop offset="0.58308" stop-color="#6dba36"/><stop offset="0.72913" stop-color="#85c348"/><stop offset="0.91244" stop-color="#add265"/><stop offset="1" stop-color="#c2da75"/></linearGradient><linearGradient id="名称未設定グラデーション_2" x1="11.71971" y1="92.14181" x2="2.01076" y2="82.43286" gradientUnits="userSpaceOnUse"><stop offset="0" stop-color="#009dda"/><stop offset="0.00728" stop-color="#009cd9"/><stop offset="0.09518" stop-color="#008fd2"/><stop offset="0.21363" stop-color="#0088ce"/><stop offset="0.49275" stop-color="#0086cd"/><stop offset="0.78008" stop-color="#0088ce"/><stop offset="0.90202" stop-color="#008fd2"/><stop offset="0.99251" stop-color="#009cd9"/><stop offset="1" stop-color="#009dda"/></linearGradient><linearGradient id="名称未設定グラデーション_196" x1="43.88347" y1="93.83004" x2="0.98857" y2="50.93514" gradientUnits="userSpaceOnUse"><stop offset="0" stop-color="#6ec3ee"/><stop offset="0.49275" stop-color="#0082ca"/><stop offset="1" stop-color="#6ec3ee"/></linearGradient><linearGradient id="名称未設定グラデーション_23" x1="58.38925" y1="42.00954" x2="50.62734" y2="34.24762" gradientUnits="userSpaceOnUse"><stop offset="0" stop-color="#8ec43e"/><stop offset="0.00808" stop-color="#8bc33d"/><stop offset="0.07156" stop-color="#7abe37"/><stop offset="0.14827" stop-color="#6dba32"/><stop offset="0.25184" stop-color="#66b830"/><stop offset="0.49564" stop-color="#64b72f"/><stop offset="0.74373" stop-color="#66b830"/><stop offset="0.84912" stop-color="#6dba32"/><stop offset="0.92718" stop-color="#7abe37"/><stop offset="0.99178" stop-color="#8bc33d"/><stop offset="1" stop-color="#8ec43e"/></linearGradient></defs><g id="レイヤー_2" data-name="レイヤー 2"><g id="レイヤー_2-2" data-name="レイヤー 2"><path d="M53.18029,11.208a20.362,20.362,0,0,1-3.37206,3.11424c-.17871.11915-.27735.19825-.35742.19825-.09864,0-.17774-.09961-.33692-.31739a3.44611,3.44611,0,0,0-.81347-.79394,14.80927,14.80927,0,0,0,5.51463-5.61326H51.33557c-1.80469,0-2.41992.04-2.53906.04-.17871,0-.19824-.02051-.19824-.17872V6.68455c0-.17773.01953-.19824.19824-.19824.11914,0,.73437.04,2.53906.04h3.11424a14.91738,14.91738,0,0,0,.53614-1.4082H52.80333c-1.96386,0-2.61815.03906-2.71776.03906-.17773,0-.19824-.01953-.19824-.17773V4.02733c0-.15918.02051-.17871.19824-.17871.09961,0,.7539.03906,2.71776.03906h2.51953c.09863-.456.19824-.93163.27734-1.40819-1.46777.0996-2.8955.17871-4.36424.19824-.39649,0-.416,0-.55469-.43653a2.09457,2.09457,0,0,0-.456-.85253c2.20116.01953,4.126-.04,6.10935-.19824A43.74537,43.74537,0,0,0,61.47226.49609,4.534,4.534,0,0,0,62.54354.15918a10.32711,10.32711,0,0,1,1.11035.89257c.15918.15821.19824.23731.19824.33692,0,.13867-.09863.19824-.33691.19824a5.99611,5.99611,0,0,0-.91211.09961c-1.80566.29687-3.4912.51562-5.39549.67382-.09961.51563-.19922,1.03223-.31738,1.52734h4.959c1.96386,0,2.61815-.03906,2.71679-.03906.17871,0,.19921.01953.19921.17871v.95215c0,.1582-.0205.17773-.19921.17773-.09864,0-.75293-.03906-2.71679-.03906H56.53282a11.97836,11.97836,0,0,1-.51563,1.4082h7.24022c1.82519,0,2.43944-.04,2.539-.04.1582,0,.17871.02051.17871.19824V7.6572c0,.15821-.02051.17872-.17871.17872-.09961,0-.71386-.04-2.539-.04H55.442c-.23828.456-.47656.89257-.7539,1.32909h5.93064c1.74609,0,2.5791-.04,2.67773-.04.15918,0,.17871.0205.17871.19824,0,.11914-.03906.69433-.03906,2.73827v2.1416c0,3.01561.03906,3.57127.03906,3.68944,0,.15918-.01953.17871-.17871.17871H62.12655c-.1582,0-.17871-.01953-.17871-.17871v-.77344H54.64806v.81348c0,.1582-.01954.17871-.17871.17871H53.319c-.1582,0-.17871-.02051-.17871-.17871,0-.09961.04-.73438.04-3.709Zm1.46777-.91309v1.1709h7.29978v-1.1709ZM61.94784,13.667V12.497H54.64806V13.667Zm0,2.24218V14.69918H54.64806v1.20995Z"/><path d="M76.49565,3.68944c1.4873,0,1.96386-.01953,2.06249-.01953.15918,0,.17871,0,.17871.17871V4.8994c0,.19824-.01953.21875-.17871.21875-.09863,0-.57519-.04-2.06249-.04H74.69c-1.50683,0-1.94335.04-2.06249.04-.15918,0-.17871-.02051-.17871-.21875V3.84862c0-.17871.01953-.17871.17871-.17871.11914,0,.55566.01953,2.06249.01953ZM73.14312,1.1709c0-.15918.01953-.17872.19824-.17872.09961,0,.47656.03907,1.72558.03907H76.396c1.25,0,1.62695-.03907,1.74609-.03907.1582,0,.17871.01954.17871.17872v.9912c0,.17871-.02051.19824-.17871.19824-.11914,0-.49609-.03906-1.74609-.03906h-1.3291c-1.249,0-1.626.03906-1.72558.03906-.17871,0-.19824-.01953-.19824-.19824Zm.21777,16.9394c-.1582,0-.17773-.01953-.17773-.17773,0-.11914.03906-.53614.03906-2.93652V13.76656c0-1.21-.03906-1.666-.03906-1.78515,0-.15918.01953-.17871.17773-.17871.11914,0,.5166.04,1.72656.04h1.21c1.22949,0,1.60644-.04,1.72558-.04.17871,0,.19824.01953.19824.17871,0,.09863-.04.55566-.04,1.4873v1.29c0,2.30077.04,2.69725.04,2.8164,0,.15917-.01953.17871-.19824.17871H77.01127c-.15918,0-.17871-.01954-.17871-.17871v-.61524h-2.2412v.97266c0,.1582-.01953.17773-.17871.17773Zm0-11.50485c0-.1582.02051-.17871.17871-.17871.11914,0,.43653.04,1.60742.04h1.01172c1.12988,0,1.46777-.04,1.5664-.04.19824,0,.21875.02051.21875.17871v.99218c0,.17872-.02051.19825-.21875.19825-.09863,0-.43652-.04-1.5664-.04H75.147c-1.17089,0-1.48828.04-1.60742.04-.1582,0-.17871-.01953-.17871-.19825Zm0,2.69823c0-.15917.02051-.17871.17871-.17871.11914,0,.43653.03907,1.60742.03907h1.01172c1.12988,0,1.46777-.03907,1.5664-.03907.19824,0,.21875.01954.21875.17871v.99121c0,.15918-.02051.17871-.21875.17871-.09863,0-.43652-.04-1.5664-.04H75.147c-1.17089,0-1.48828.04-1.60742.04-.1582,0-.17871-.01953-.17871-.17871Zm1.23047,6.40721h2.2412V13.09176h-2.2412ZM80.106,8.52927c0-.49511,0-.89257.03906-1.28906-.21777.25782-.45605.53614-.67382.77344-.15918.17871-.25781.25781-.35742.25781-.09864,0-.17871-.09863-.29785-.25781a2.52546,2.52546,0,0,0-.59473-.61426A9.63575,9.63575,0,0,0,80.4429,4.8203,3.48685,3.48685,0,0,0,80.899,3.68944a7.70626,7.70626,0,0,1,1.19042.33789c.17871.0791.21778.11817.21778.21778,0,.05957-.03907.13867-.15821.21777a2.009,2.009,0,0,0-.39648.53613h2.53906a3.47708,3.47708,0,0,0,.29687-.61523A2.375,2.375,0,0,0,84.76711,3.71a9.9586,9.9586,0,0,1,1.25.27734c.13867.04.19824.09864.19824.15821a.25655.25655,0,0,1-.13867.21875.78576.78576,0,0,0-.23828.31738l-.17871.31738h1.46777c1.667,0,2.20214-.04,2.32128-.04.1582,0,.17871.02051.17871.17871V5.792c0,.17871-.02051.19824-.17871.19824-.11914,0-.6543-.03907-2.32128-.03907H85.58059v.97168h1.11034c1.42871,0,2.06347-.03906,2.18261-.03906.17871,0,.19825.01953.19825.19824V7.6572c0,.17872-.01954.19825-.19825.19825-.11914,0-.7539-.04-2.18261-.04H85.58059v.95214h1.11034c1.44824,0,2.083-.03906,2.20215-.03906.17871,0,.19824.01953.19824.21777v.55567c0,.17871-.01953.19824-.19824.19824-.11914,0-.75391-.04-2.18164-.04H85.58059v1.03222H87.148c1.82422,0,2.43945-.04,2.53906-.04.1582,0,.17773.01953.17773.17871v.6543c0,.17871-.01953.19824-.17773.19824-.09961,0-.71484-.03906-2.53906-.03906H82.80325c-1.82519,0-2.43945.03906-2.55859.03906-.15918,0-.17871-.01953-.17871-.19824,0-.11914.04-.6543.04-1.76562Zm6.90233,4.02733a.93834.93834,0,0,0,.43652-.05957.51671.51671,0,0,1,.21875-.05957c.09863,0,.25781.05957.61425.377.377.33691.457.456.457.59472,0,.13965-.05957.19824-.19824.27832a1.911,1.911,0,0,0-.55566.456,12.674,12.674,0,0,1-1.96386,1.666,20.093,20.093,0,0,0,4.62205.79394,2.96387,2.96387,0,0,0-.49609.89257c-.17871.47559-.17871.47559-.65429.416a15.51079,15.51079,0,0,1-4.87987-1.3291A18.0063,18.0063,0,0,1,79.689,17.97163c-.47558.0791-.51562.0791-.69433-.377a2.86073,2.86073,0,0,0-.47559-.833A19.15527,19.15527,0,0,0,83.27981,15.79a9.45183,9.45183,0,0,1-2.123-2.14257c-1.09082.01953-1.50683.04-1.60644.04-.15918,0-.17871-.02051-.17871-.17871v-.79394c0-.17774.01953-.19824.17871-.19824.11914,0,.71386.04,2.47948.04ZM81.83157,1.36914A6.81249,6.81249,0,0,0,81.732.09961,12.97134,12.97134,0,0,1,83.1011.21875c.13867.01953.23828.0791.23828.1582a.26016.26016,0,0,1-.05957.19824,1.24985,1.24985,0,0,0-.15918.69434v.37695h2.6582V1.36914A6.91242,6.91242,0,0,0,85.68019.09961a13.84456,13.84456,0,0,1,1.3877.11914c.13964.01953.23828.05859.23828.1582a.28332.28332,0,0,1-.07911.19824,1.29917,1.29917,0,0,0-.13867.69434v.37695h.29688c1.9248,0,2.57909-.04,2.69823-.04.1582,0,.17871.02051.17871.19922V2.6582c0,.17871-.02051.19824-.17871.19824-.11914,0-.77343-.04-2.69823-.04h-.29688c0,.5166.03907.7539.03907.85351,0,.1582-.01954.17871-.19825.17871H85.9175c-.1582,0-.17871-.02051-.17871-.17871,0-.09961.02051-.33691.04-.85351h-2.6582c0,.5166.04.7539.04.85351,0,.1582-.01953.17871-.17871.17871H81.97024c-.1582,0-.17871-.02051-.17871-.17871,0-.09961.02051-.33691.04-.85351h-.04c-1.92382,0-2.57811.04-2.67772.04-.17871,0-.19824-.01953-.19824-.19824V1.80566c0-.17871.01953-.19922.19824-.19922.09961,0,.7539.04,2.67772.04h.04Zm2.47949,5.55369V5.95115h-2.916v.97168Zm0,1.84472V7.81541h-2.916v.95214Zm0,1.9248V9.66013h-2.916v1.03222Zm-1.60644,2.95507a7.037,7.037,0,0,0,1.90429,1.54785A9.12306,9.12306,0,0,0,86.731,13.64742Z"/><path d="M103.12253,12.874c-.85254,1.46777-1.80469,2.14257-3.11425,2.14257-1.58691,0-3.15331-1.72558-3.15331-4.76073a7.27358,7.27358,0,0,1,2.28026-5.15819,8.51388,8.51388,0,0,1,6.1494-2.3203c4.60253,0,7.28025,2.71776,7.28025,6.58591,0,3.43164-2.02343,5.91112-6.209,7.06151a.52326.52326,0,0,1-.67383-.27832,2.865,2.865,0,0,0-1.03222-.95117c3.68944-.79394,6.11033-2.59863,6.11033-6.08983a4.81632,4.81632,0,0,0-5.07811-4.8203A22.9011,22.9011,0,0,1,103.12253,12.874Zm-2.876-6.68455a5.9479,5.9479,0,0,0-1.74609,4.00682c0,2.02343.79394,2.97558,1.46875,2.97558.61425,0,1.15038-.35742,1.70507-1.34961a21.518,21.518,0,0,0,2.24218-7.458A6.41172,6.41172,0,0,0,100.24656,6.18944Z"/><path d="M124.27481,3.09472a8.80848,8.80848,0,0,0-.13867-1.76562,10.96573,10.96573,0,0,1,1.94433.31738.35208.35208,0,0,1,.29687.33691.58959.58959,0,0,1-.09863.27832,2.27092,2.27092,0,0,0-.25781.91211c-.04.53613-.05957,1.09082-.08008,1.72558a19.74522,19.74522,0,0,0,2.75781-.81347c.1582-.0586.25781-.03907.27734.15918a6.80324,6.80324,0,0,1,.09961,1.11034c0,.17871-.05957.21875-.23828.27832a21.78782,21.78782,0,0,1-2.97558.793c-.03906,1.15136-.03906,2.30175-.03906,3.47167a12.30281,12.30281,0,0,1,5.03807-1.3291c2.46,0,4.02636,1.52734,4.02636,3.71,0,2.459-1.626,3.80858-4.18554,3.80858a6.58843,6.58843,0,0,1-1.60644-.19921c-.25781-.0791-.33691-.23731-.35644-.55469a2.66069,2.66069,0,0,0-.43653-1.21,6.16566,6.16566,0,0,0,2.28125.377,2.23173,2.23173,0,0,0,2.51854-2.28125c0-1.38867-.89257-2.22167-2.499-2.22167a11.122,11.122,0,0,0-4.76073,1.46777c.01953.77343.04,1.72558.09863,2.79686.04.91211.13965,1.80469.13965,2.18164,0,.27832,0,.47656-.25781.53613a6.27957,6.27957,0,0,1-1.13086.19824c-.19824,0-.29785-.17871-.65527-.5957a15.0351,15.0351,0,0,0-2.8164-2.36034,3.75461,3.75461,0,0,0-.65429.43652.56556.56556,0,0,1-.31738.13867c-.13868,0-.23829-.09863-.35743-.27734a11.99308,11.99308,0,0,1-.73339-1.44824,8.60933,8.60933,0,0,0,1.88378-.69434c.85351-.43652,1.88476-1.03124,3.19433-1.78515V6.68455c-1.19043.11914-2.44042.19922-3.4912.19922-.29785,0-.377-.11914-.417-.35742a10.47544,10.47544,0,0,1-.15821-1.22949,19.24329,19.24329,0,0,0,4.08593-.13965C124.25528,4.48339,124.27481,3.82811,124.27481,3.09472ZM121.974,13.62789c.77343.456,1.4873.85254,2.22167,1.22949.1582.05957.19824.04.19824-.13867-.01953-.71387-.05957-1.62695-.11914-2.53906C123.52091,12.59664,122.82657,13.09176,121.974,13.62789Zm9.66012-9.958c.11915-.15918.17872-.21875.31739-.17871a7.99569,7.99569,0,0,1,4.04686,2.22167.20721.20721,0,0,1,0,.31739,13.10046,13.10046,0,0,1-.833,1.09081.23967.23967,0,0,1-.31738,0,7.61367,7.61367,0,0,0-3.88768-2.28124C131.15858,4.44335,131.39588,4.04686,131.63416,3.66991Z"/><path d="M144.59409,9.91794c0-.69433.02051-1.60644.04-2.459a26.468,26.468,0,0,1-1.76562,2.32031c-.11914.13867-.21778.19824-.27735.19824-.0791,0-.13867-.0791-.19824-.25781a4.21342,4.21342,0,0,0-.57519-1.22949,20.52124,20.52124,0,0,0,4.1455-7.0615,5.101,5.101,0,0,0,.27734-1.36914A11.95617,11.95617,0,0,1,147.808.5957c.17871.0791.25781.13867.25781.25781a.43833.43833,0,0,1-.19824.31739c-.11914.09863-.19824.27734-.377.73339a33.00233,33.00233,0,0,1-1.34862,3.01562v9.89841c0,2.02245.03906,2.9746.03906,3.07421,0,.1582-.01953.17871-.19824.17871h-1.22949c-.17871,0-.19824-.02051-.19824-.17871,0-.11914.03906-1.05176.03906-3.07421Zm6.08983,7.082c-1.94336,0-2.59863.04-2.71679.04-.13965,0-.15918-.02051-.15918-.19922V15.69038c0-.1582.01953-.17871.15918-.17871.11816,0,.77343.04,2.71679.04h1.92479V8.17283H150.347c-1.98339,0-2.63866.04-2.75683.04-.15918,0-.17871-.02051-.17871-.17871v-1.21c0-.15918.01953-.17871.17871-.17871.11817,0,.77344.03906,2.75683.03906h2.26171V3.293a18.007,18.007,0,0,0-.13964-2.85644,14.83587,14.83587,0,0,1,1.72655.13867c.17774.02051.25782.09961.25782.19825a.837.837,0,0,1-.08008.35742,7.33315,7.33315,0,0,0-.13867,2.12206V6.68455h2.7578c1.98339,0,2.6582-.03906,2.75683-.03906.15918,0,.17871.01953.17871.17871v1.21c0,.1582-.01953.17871-.17871.17871-.09863,0-.77344-.04-2.75683-.04h-2.7578v7.37888h2.28124c1.94433,0,2.59863-.04,2.71777-.04.15917,0,.17871.02051.17871.17871v1.15039c0,.17871-.01954.19922-.17871.19922-.11914,0-.77344-.04-2.71777-.04Z"/><path d="M168.10769,12.33786c-1.78515,0-2.40038.04-2.5.04-.1582,0-.17773-.01953-.17773-.17871v-.89257c0-.17871.01953-.19824.17773-.19824.09961,0,.71484.04,2.5.04h5.3955V9.958h-3.35253c-1.96387,0-2.63867.04-2.75683.04-.15918,0-.17871-.02051-.17871-.15918v-.873c0-.17773.01953-.19824.17871-.19824.11816,0,.793.04,2.75683.04h3.35253V7.67674h-2.5791c-1.98339,0-2.67772.04-2.79687.04-.1582,0-.17871-.0205-.17871-.21874,0-.09864.04-.33692.04-1.05078V5.51463c0-.71386-.04-.95214-.04-1.07128,0-.17871.02051-.19824.17871-.19824.11915,0,.81348.04,2.79687.04h2.5791V3.21386h-5.17772c-1.82519,0-2.46.03906-2.55859.03906-.15918,0-.17871-.01953-.17871-.19824V2.10253c0-.1582.01953-.17871.17871-.17871.09863,0,.7334.04,2.55859.04h5.17772A8.6969,8.6969,0,0,0,173.36451,0a13.89809,13.89809,0,0,1,1.626.11914c.15918.01953.27832.0791.27832.17871a.8428.8428,0,0,1-.11914.37695,3.709,3.709,0,0,0-.11914,1.28906h5.19725c1.82421,0,2.43944-.04,2.55858-.04.17871,0,.19824.02051.19824.17871v.95215c0,.17871-.01953.19824-.19824.19824-.11914,0-.73437-.03906-2.55858-.03906h-5.19725V4.28514h2.67772c1.9834,0,2.67773-.04,2.79687-.04.15918,0,.17871.01953.17871.19824,0,.11914-.04.35742-.04,1.07128v.93262c0,.71386.04.95214.04,1.05078,0,.19824-.01953.21874-.17871.21874-.11914,0-.81347-.04-2.79687-.04h-2.67772V8.80759h3.21288c1.98437,0,2.6787-.04,2.77733-.04.17871,0,.19824.02051.19824.19824,0,.09961-.03906.53614-.03906,1.74609v.43653c1.249,0,1.74511-.04,1.84472-.04.13867,0,.15821.01953.15821.19824v.89257c0,.15918-.01954.17871-.15821.17871-.09961,0-.5957-.01953-1.84472-.04v1.17089c0,1.22949.03906,1.68652.03906,1.80468,0,.15918-.01953.17871-.19824.17871h-1.15038c-.15821,0-.17871-.01953-.17871-.17871v-.53515h-4.66112c.01953.456.03906.89257.03906,1.25,0,.89258-.1582,1.30859-.63477,1.60645a5.6536,5.6536,0,0,1-2.71679.39648c-.47656,0-.51562-.01953-.63476-.456a3.57787,3.57787,0,0,0-.53613-1.15039c.71386.05957,1.09082.0791,1.78515.0791.99219,0,1.1709-.1582,1.1709-.873v-.85253h-3.333c-2.00293,0-2.6582.04-2.77636.04-.15918,0-.17871-.02051-.17871-.19922v-.85254c0-.17871.01953-.19824.17871-.19824.11816,0,.77343.03906,2.77636.03906h3.333V12.33786Zm5.3955-5.73241v-1.25h-4.0664v1.25Zm5.71287-1.25h-4.18553v1.25h4.18553ZM175.03053,9.958v1.19043h4.66112V9.958Zm4.66112,3.6494V12.33786h-4.66112v1.26952Z"/><path d="M192.79122,2.34081c.25781.15918.35644.25782.35644.39649,0,.11914-.03906.19824-.21777.43652a3.51364,3.51364,0,0,0-.417,1.21,32.37807,32.37807,0,0,0-.89258,6.665,17.49093,17.49093,0,0,0,.19824,2.93554c.45606-1.01172.85352-1.78516,1.42871-3.17382a6.23537,6.23537,0,0,0,.59473.99218.39286.39286,0,0,1,.11914.23828.65859.65859,0,0,1-.09961.31738,31.28581,31.28581,0,0,0-1.21,3.07421,1.37108,1.37108,0,0,0-.0791.55567c0,.19824.04.33691.04.47656,0,.11816-.04.17773-.17871.21777a11.91665,11.91665,0,0,1-1.30957.25781c-.11914,0-.19824-.0791-.2373-.21777a18.46645,18.46645,0,0,1-.89356-5.81248,37.07839,37.07839,0,0,1,.75391-6.665,12.83648,12.83648,0,0,0,.31738-2.51953A8.116,8.116,0,0,1,192.79122,2.34081Zm4.18456,9.40232c.11914,0,.15917.05957.15917.23828.09961,1.44824,1.19043,2.043,3.3916,2.0625a26.11961,26.11961,0,0,0,3.86815-.27735c.17871-.01953.21875,0,.23828.21778a12.34486,12.34486,0,0,1,.0791,1.26952c0,.19922,0,.21875-.27734.25781a26.26986,26.26986,0,0,1-3.43163.21875c-2.51953,0-3.82812-.377-4.70116-1.4082a3.79831,3.79831,0,0,1-.77344-2.45995Zm-.7334-7.39842c0-.19921.05957-.25878.25781-.29785a33.72213,33.72213,0,0,1,4.24511-.35742,26.6348,26.6348,0,0,1,2.85643.11914c.33692.01953.377.04.377.21875,0,.43555,0,.8125-.04,1.22949,0,.1582-.03907.21777-.21778.19824-.95214-.0791-2.14257-.09961-3.21385-.09961a23.34017,23.34017,0,0,0-4.30468.43653C196.22285,4.999,196.22285,4.64159,196.24238,4.34471Z"/><path d="M210.25308,13.40914a.46812.46812,0,0,1,.25781-.13867.4354.4354,0,0,1,.23731.11914,14.60969,14.60969,0,0,1,3.86815,3.59081.43635.43635,0,0,1,.11914.27734c0,.0791-.03906.15821-.17871.25782l-.93164.81347c-.11914.09863-.17871.13867-.23828.13867-.0791,0-.1582-.01953-.23828-.17871a14.44351,14.44351,0,0,0-3.68944-3.749c-.11914-.05957-.1582-.09863-.1582-.15821s.01953-.0996.11914-.21874Z"/><path d="M227.73252,4.26464V2.6582a12.51689,12.51689,0,0,0-.1582-2.53906c.57519.01953,1.07129.05957,1.56738.11914.17773.01953.29687.09863.29687.17871a.92334.92334,0,0,1-.11914.39648,5.27675,5.27675,0,0,0-.13867,1.80469V4.26464h.13867c1.54785,0,2.04394-.03907,2.14258-.03907.15917,0,.17871.01954.17871.17871V5.47459c0,.17871-.01954.19922-.17871.19922-.09864,0-.59473-.04-2.14258-.04a14.63376,14.63376,0,0,0,2.67871,4.0664,4.565,4.565,0,0,0-.61524,1.16992c-.0791.17871-.11914.27832-.17871.27832s-.13867-.08008-.23828-.23828a17.40186,17.40186,0,0,1-1.86425-3.62988c.01953,5.75194.15918,10.2949.15918,10.63181,0,.15918-.02051.17871-.19922.17871h-1.22949c-.1582,0-.17871-.01953-.17871-.17871,0-.33691.11914-4.78026.15918-10.19529A19.44,19.44,0,0,1,225.17394,13.33c-.11914.17871-.19824.27734-.27735.27734s-.13867-.11816-.21875-.3164a4.45467,4.45467,0,0,0-.61425-1.03223,21.06385,21.06385,0,0,0,3.45116-6.625h-.55566c-1.52734,0-2.02343.04-2.1416.04-.15918,0-.17871-.02051-.17871-.19922V4.40428c0-.15917.01953-.17871.17871-.17871.11817,0,.61426.03907,2.1416.03907Zm5.11815,13.747c-.1582,0-.17871-.01953-.17871-.17871,0-.11914.04-1.30957.04-7.33983V6.54588c0-3.92772-.04-5.13768-.04-5.27635,0-.15821.02051-.17871.17871-.17871.13867,0,.71387.04,2.44043.04h3.58983c1.70605,0,2.30077-.04,2.40038-.04.17871,0,.19824.0205.19824.17871,0,.11914-.04,1.34863-.04,4.68162v4.50292c0,6.01073.04,7.20018.04,7.31932,0,.15918-.01953.17871-.19824.17871h-1.19042c-.15821,0-.17871-.01953-.17871-.17871V16.7021h-5.67284V17.833c0,.15918-.01953.17871-.19824.17871Zm1.38867-12.19919h5.67284V2.57909h-5.67284Zm5.67284,4.62108V7.22068h-5.67284v3.21288Zm0,4.84081V11.84274h-5.67284v3.43163Z"/><path d="M252.73343,3.71c1.46777,0,1.9248-.02051,2.02343-.02051.15918,0,.17871,0,.17871.15918V4.91991c0,.17773-.01953.19824-.17871.19824-.09863,0-.55566-.04-2.02343-.04h-2.24121c-1.46776,0-1.92382.04-2.02343.04-.1582,0-.17871-.02051-.17871-.19824V3.84862c0-.15918.02051-.15918.17871-.15918.09961,0,.55567.02051,2.02343.02051Zm-.25781-2.6787c1.23046,0,1.60741-.03907,1.70605-.03907.17871,0,.19824.01954.19824.19825v.9912c0,.15918-.01953.17871-.19824.17871-.09864,0-.47559-.03906-1.70605-.03906h-1.54687c-1.22949,0-1.60644.03906-1.72558.03906-.15918,0-.17871-.01953-.17871-.17871v-.9912c0-.17871.01953-.19825.17871-.19825.11914,0,.49609.03907,1.72558.03907Zm-3.23339,17.09956c-.1582,0-.17774-.02051-.17774-.17871,0-.11914.03907-.53613.03907-2.93554V13.78609c0-1.20995-.03907-1.666-.03907-1.80468,0-.15918.01954-.17871.17774-.17871.09961,0,.49609.04,1.70605.04h1.4082c1.20995,0,1.58691-.04,1.70605-.04.15918,0,.17871.01953.17871.17871,0,.11914-.04.57519-.04,1.4873v1.30957c0,2.30077.04,2.69726.04,2.79687,0,.17871-.01953.19824-.17871.19824h-1.05078c-.15918,0-.17871-.01953-.17871-.19824v-.61524h-2.34082v.99219c0,.1582-.01953.17871-.17871.17871Zm0-11.50583c0-.1582.02051-.17773.19824-.17773.09961,0,.417.03906,1.56738.03906h1.23046c1.12988,0,1.44726-.03906,1.56641-.03906.17871,0,.19824.01953.19824.17773v.99219c0,.15918-.01953.17871-.19824.17871-.11915,0-.43653-.04-1.56641-.04h-1.23046c-1.15039,0-1.46777.04-1.56738.04-.17773,0-.19824-.01953-.19824-.17871Zm0,2.69824c0-.17871.02051-.19825.19824-.19825.09961,0,.417.03907,1.56738.03907h1.23046c1.12988,0,1.44726-.03907,1.56641-.03907.17871,0,.19824.01954.19824.19825v.99218c0,.13867-.01953.1582-.19824.1582-.11915,0-.43653-.04-1.56641-.04h-1.23046c-1.15039,0-1.46777.04-1.56738.04-.17773,0-.19824-.01953-.19824-.1582Zm1.25,6.4072H252.833V13.09176h-2.34082Zm8.94627-5.5742a7.37622,7.37622,0,0,0-.01953-1.88476,12.499,12.499,0,0,1,1.44726.15918c.21875.04.33789.11914.33789.21777a.41854.41854,0,0,1-.09961.29785,1.11906,1.11906,0,0,0-.1582.51563q-.03077.29736-.05957.5957a7.84846,7.84846,0,0,0,5.35545,6.58494,4.46478,4.46478,0,0,0-.69433,1.03222c-.13868.27735-.19825.39649-.31739.39649a.88593.88593,0,0,1-.33691-.13867,8.75889,8.75889,0,0,1-4.48339-5.17772,7.79579,7.79579,0,0,1-4.582,5.19725,1.09848,1.09848,0,0,1-.377.11914c-.13867,0-.19824-.09961-.33691-.377a2.49684,2.49684,0,0,0-.73437-.89258C257.89162,15.69038,259.22072,13.38961,259.43849,10.15622Zm6.04979-1.42773c-.11914.29687-.17871.416-.29688.416a1.21552,1.21552,0,0,1-.35742-.09864,7.4363,7.4363,0,0,1-4.42382-4.48338,7.06021,7.06021,0,0,1-4.4033,4.54295.9788.9788,0,0,1-.377.11817c-.11915,0-.19825-.09864-.33692-.376a2.7768,2.7768,0,0,0-.6748-.81347c3.35253-1.03223,4.66112-2.97558,4.83983-5.89159a9.23141,9.23141,0,0,0-.01953-1.84472,11.1218,11.1218,0,0,1,1.4082.1582c.21875.04.33691.09961.33691.21875a.4456.4456,0,0,1-.09863.29688.78725.78725,0,0,0-.13867.377c-.02051.19824-.04.47656-.05957.65527.45605,3.55077,2.75682,4.998,5.21678,5.792A3.05868,3.05868,0,0,0,265.48828,8.72849Zm-10.414,4.44335c-.21777-.17871-.21777-.21875-.09863-.33789a8.52687,8.52687,0,0,0,1.70605-2.53906c.03906-.09863.05859-.13867.11816-.13867a.844.844,0,0,1,.23828.09961l.67481.35644c.25781.11914.27734.15918.19824.33789a9.81584,9.81584,0,0,1-1.76562,2.75683.29161.29161,0,0,1-.1582.09961c-.05957,0-.11914-.04-.23828-.11914Zm2.89648-10.831c.23828.09961.25781.13868.19824.29785a8.86057,8.86057,0,0,1-1.627,2.7373c-.05957.0791-.09863.11914-.1582.11914a.44043.44043,0,0,1-.23828-.11914l-.6543-.47656c-.21875-.17871-.21875-.21777-.09961-.33691a7.56311,7.56311,0,0,0,1.54785-2.499c.05957-.15918.05957-.13965.33691-.02051Zm5.75194,8.49021a4.23838,4.23838,0,0,0,.417-.77343,5.69512,5.69512,0,0,1,1.19042.47558c.19824.09961.27735.19824.27735.27735,0,.13964-.07911.17871-.21778.25781a1.599,1.599,0,0,0-.33789.377,11.44756,11.44756,0,0,1-1.60644,1.72656c-.1582.1582-.25781.2373-.35742.2373-.09863,0-.19824-.0791-.376-.25781a3.00416,3.00416,0,0,0-.77442-.53516A8.37,8.37,0,0,0,263.72266,10.831Zm0-8.23239a3.18757,3.18757,0,0,0,.39746-.77344,5.94065,5.94065,0,0,1,1.18945.49609c.19921.11914.25878.15821.25878.25781,0,.13868-.08007.17871-.21875.27735a2.02774,2.02774,0,0,0-.33691.35742,10.71819,10.71819,0,0,1-1.54785,1.72558c-.17773.1582-.25781.23828-.35644.23828-.09961,0-.19824-.08008-.377-.23828a2.4242,2.4242,0,0,0-.77344-.49609A8.65034,8.65034,0,0,0,263.72266,2.59863Z"/><path d="M275.15622,12.874c.23828.0791.23828.11914.19824.27734a10.71823,10.71823,0,0,1-1.98339,3.80858c-.07911.09961-.11914.13965-.17871.13965a.44042.44042,0,0,1-.23829-.11914l-.87206-.5957c-.17871-.13867-.19922-.19824-.08008-.33691a8.16719,8.16719,0,0,0,1.9248-3.3916c.03906-.17871.0791-.17871.33691-.09961Zm7.51755-7.79588c0,.35742.08008.49609.33789.57519a3.92371,3.92371,0,0,0,1.13086.07911,1.89791,1.89791,0,0,0,1.09082-.23731c.27734-.19824.29687-.55566.29687-1.26953a3.31851,3.31851,0,0,0,.97265.377c.39649.11816.39649.11816.377.53515a1.81411,1.81411,0,0,1-.71485,1.46777,4.82337,4.82337,0,0,1-2.26073.33789,5.94335,5.94335,0,0,1-2.06347-.19922c-.35645-.1582-.59473-.47558-.59473-1.26953V3.19335h-7.29978V5.47459c0,.17871-.01953.19922-.17871.19922h-1.19043c-.17773,0-.19824-.02051-.19824-.19922,0-.11914.04-.33691.04-1.90429V3.01562c0-.5752-.04-.85352-.04-.97266,0-.1582.02051-.17773.19824-.17773.09961,0,.77441.03906,2.6582.03906h4.36424V1.42871A6.27177,6.27177,0,0,0,279.46089.0791c.55566.02051,1.13086.05957,1.64648.09961.17871.01953.27734.0791.27734.17871a.92677.92677,0,0,1-.11914.37695,2.15469,2.15469,0,0,0-.09863.7334v.43652h4.72069c1.90429,0,2.55859-.03906,2.69824-.03906.1582,0,.17773.01953.17773.17773,0,.11914-.03906.39746-.03906.85352V3.5703c0,1.56738.03906,1.78515.03906,1.90429,0,.17871-.01953.19922-.17773.19922h-1.19043c-.17871,0-.19824-.02051-.19824-.19922V3.19335h-4.52343Zm-3.58983-1.26953c.1582.0791.27734.13867.27734.25781a.29338.29338,0,0,1-.19824.25782,1.48541,1.48541,0,0,0-.49609.57519,7.44107,7.44107,0,0,1-4.46288,3.23339c-.417.09961-.417.11914-.57519-.23828a2.87616,2.87616,0,0,0-.6543-.93164c2.26074-.57519,3.55077-1.26953,4.36327-2.67773a4.07033,4.07033,0,0,0,.43652-.95214A9.43841,9.43841,0,0,1,279.08394,3.80858ZM276.8818,9.77927A25.56066,25.56066,0,0,0,278.33,7.18064a6.85088,6.85088,0,0,0,.43652-1.19042,12.73516,12.73516,0,0,1,1.4873.43652c.15918.05957.27832.13965.27832.25781,0,.11914-.09961.21875-.23828.29785a2.74855,2.74855,0,0,0-.45606.63477c-.417.71386-.7539,1.36913-1.21,2.06347,1.92382-.11914,3.76854-.25782,5.49412-.43653-.416-.37695-.833-.73437-1.26953-1.09081-.13867-.09961-.11914-.17871.05957-.29785l.69434-.45606c.15918-.11914.19824-.13965.33691-.04a23.041,23.041,0,0,1,3.70995,3.43163c.11914.13868.09863.17872-.11914.33692l-.7539.61523c-.11914.0791-.17871.11914-.23828.11914s-.09864-.04-.15821-.09961c-.39648-.51562-.79394-.97168-1.19042-1.4082-3.332.39746-6.54588.67481-9.958.91309a5.47177,5.47177,0,0,0-1.34863.17773.75074.75074,0,0,1-.31738.11914c-.11914,0-.19824-.09863-.25781-.29687-.11914-.457-.21875-.97266-.29786-1.46875a18.66741,18.66741,0,0,0,2.043.05957Zm1.52734,5.45506c0,.47656.09961.77344.39648.91211a5.56625,5.56625,0,0,0,2.10351.23828,4.61065,4.61065,0,0,0,2.47949-.377c.377-.21778.59472-.89258.65429-1.96386a3.61018,3.61018,0,0,0,1.11035.47656c.39746.11914.39746.13867.33789.55566-.19824,1.22949-.53613,1.82421-1.07129,2.14159-.7539.43653-1.74609.5166-3.61034.5166a7.8103,7.8103,0,0,1-3.15429-.377c-.47558-.23828-.793-.5957-.793-1.68652V13.76656a11.095,11.095,0,0,0-.09961-1.627c.51562.02051,1.11132.08008,1.54784.13965.21778.03906.31739.0791.31739.1582a.72826.72826,0,0,1-.09961.31739,2.59238,2.59238,0,0,0-.11914.99218Zm2.10253-3.76854c.19824-.09961.21875-.09961.35742.01953a12.99572,12.99572,0,0,1,1.92382,2.12206c.09961.15918.05957.21875-.17871.377l-.73339.47656a.66614.66614,0,0,1-.23828.09961c-.05957,0-.07911-.04-.13868-.11914a10.92515,10.92515,0,0,0-1.78515-2.24219c-.0791-.05957-.09961-.09863-.09961-.13867,0-.05957.04-.09863.15918-.1582Zm6.03026.89257c.17871-.0791.23828-.05957.33789.05957a18.8482,18.8482,0,0,1,2.34081,3.3916c.05859.13867.03906.21874-.17871.33691l-.873.49609a.46431.46431,0,0,1-.25781.09961c-.05957,0-.09961-.04-.13867-.13867a16.32258,16.32258,0,0,0-2.18261-3.51171c-.11914-.13867-.0791-.17773.15918-.31738Z"/><path d="M296.12979,17.21772c-.15918,0-.17871-.01953-.17871-.17773,0-.13965.01953-1.09179.01953-6.40721V6.96287c0-3.65038-.01953-4.6621-.01953-4.78124,0-.1582.01953-.17773.17871-.17773.11914,0,.81347.03906,2.79687.03906h8.58884c1.96386,0,2.6582-.03906,2.77734-.03906.15917,0,.17871.01953.17871.17773,0,.11914-.01954,1.11133-.01954,4.32519v4.126c0,5.29589.01954,6.248.01954,6.36717,0,.1582-.01954.17871-.17871.17871h-1.3291c-.15821,0-.17871-.02051-.17871-.17871V15.39351H297.6376V17.04c0,.1582-.02051.17773-.19824.17773Zm1.50781-3.35155H308.785V3.59081H297.6376Z"/><path d="M322.45979,7.498a3.96982,3.96982,0,0,1,2.24121-.77344,2.26084,2.26084,0,0,1,2.47948,2.30077c.89258-.43652,2.00293-.93163,3.01464-1.42773a5.83863,5.83863,0,0,0,1.50781-1.03124,7.35447,7.35447,0,0,1,1.13086,1.36816c.21777.35742.09961.51562-.15918.57519a5.477,5.477,0,0,0-1.15039.29785c-1.4082.5752-2.6582,1.03125-4.20507,1.68554V13.747c0,.17871-.0791.25781-.27734.29688a8.556,8.556,0,0,1-1.13086.08007c-.15917,0-.21874-.09961-.21874-.27832,0-.793,0-1.80468.0205-2.67772-1.96386,1.01171-2.8369,1.94433-2.8369,3.03514,0,1.03125.9121,1.54688,3.09471,1.54688a35.59873,35.59873,0,0,0,4.7998-.39649.19909.19909,0,0,1,.25878.1582,9.128,9.128,0,0,1,.13868,1.23047c0,.21777-.08008.31738-.17871.31738a37.25906,37.25906,0,0,1-4.91991.27734c-3.01464,0-4.78026-.81347-4.78026-3.01464,0-1.76562,1.11132-3.15428,4.3242-4.74119-.05957-1.19043-.416-1.62695-1.44823-1.60644a5.12028,5.12028,0,0,0-3.01464,1.5078,26.03789,26.03789,0,0,0-1.92383,2.02246c-.15918.17871-.23828.17871-.377.04a6.52308,6.52308,0,0,1-.93261-1.01172c-.0791-.13867-.09961-.17871.04-.31738A21.338,21.338,0,0,0,322.37971,4.959c-1.11034.05957-2.22167.05957-3.43163.04-.17871,0-.21777-.0791-.25781-.23828-.03906-.27734-.11914-.85254-.13867-1.26953a43.623,43.623,0,0,0,4.543-.01953,18.73755,18.73755,0,0,0,.65429-1.88476,3.57542,3.57542,0,0,0,.1582-1.11035,8.4008,8.4008,0,0,1,1.86523.47559.29468.29468,0,0,1,.0791.51562,2.03317,2.03317,0,0,0-.35742.53613c-.19824.39648-.33691.7539-.57519,1.30859a32.60687,32.60687,0,0,0,3.90819-.63476c.19824-.03907.23828-.01953.27735.13867a7.54812,7.54812,0,0,1,.15917,1.11132c0,.15821-.05957.21778-.29785.25781-1.52734.25782-3.21385.47657-4.74119.63477A16.99165,16.99165,0,0,1,322.43929,7.459Z"/><path d="M342.06325,15.65132a2.82681,2.82681,0,1,1-2.8164-2.79686A2.81077,2.81077,0,0,1,342.06325,15.65132Zm-4.542,0a1.71584,1.71584,0,1,0,1.72558-1.72558A1.71011,1.71011,0,0,0,337.52127,15.65132Z"/><path class="cls-1" d="M298.99824,47.71191c.17774-.62793.2666-1.25684.40039-1.88574-2.89111.1455-5.69336.24218-8.71826.291-1.28955,0-1.28955,0-1.82373-1.69238A11.774,11.774,0,0,0,287.3,40.99218c5.02637.09766,9.83008-.04785,14.1001-.33789A99.17724,99.17724,0,0,0,312.698,39.30078a26.9507,26.9507,0,0,0,3.60254-.918,37.3184,37.3184,0,0,1,3.959,3.625c.48926.4834.57813.72461.57813,1.11132,0,.53223-.26709.72559-.93409.72559a20.80588,20.80588,0,0,0-2.66894.29c-3.647.53125-7.33887.9668-11.25293,1.25684-.13379.77343-.31152,1.54687-.44482,2.32031h10.18554c4.18115,0,5.69336-.09668,5.96045-.09668.57813,0,.62256.04883.62256.67676v3.52832c0,.6289-.04443.67773-.62256.67773-.26709,0-1.7793-.09766-5.96045-.09766h-11.52c-.22265.67774-.44482,1.35352-.71191,2.03125h15.479c3.8252,0,5.11524-.09765,5.42627-.09765.57862,0,.62305.04883.62305.67773v3.81836c0,.62891-.04443.67676-.62305.67676-.311,0-1.60107-.09668-5.42627-.09668h-17.6582c-.31152.67676-.66748,1.30469-1.023,1.93359h12.76563c3.6914,0,5.69335-.09668,6.00439-.09668.57813,0,.62256.04786.62256.67676,0,.33789-.08887,1.98242-.08887,7.34766v5.55859c0,6.67188.08887,8.16992.08887,8.50781,0,.67774-.04443.72559-.62256.72559h-5.02588c-.57861,0-.623-.04785-.623-.72559V82.22656H300.15449v1.16015c0,.62891-.04443.67676-.62256.67676H294.55c-.53369,0-.57813-.04785-.57813-.67676,0-.29.08887-1.83691.08887-8.41113V70.04492a49.075,49.075,0,0,1-4.98144,4.78515c-.57813.48438-.93409.77344-1.24561.77344-.35547,0-.62256-.43457-1.20068-1.30469a17.8133,17.8133,0,0,0-3.24707-3.916A33.1306,33.1306,0,0,0,294.4167,59.41015h-4.00293c-3.78076,0-5.11524.09668-5.38233.09668-.62255,0-.667-.04785-.667-.67676V55.01171c0-.6289.04444-.67773.667-.67773.26709,0,1.60157.09765,5.38233.09765h6.49365c.31152-.67773.53418-1.35351.80078-2.03125h-4.00293c-4.22558,0-5.69336.09766-5.96045.09766-.57812,0-.62256-.04883-.62256-.67773V48.292c0-.62793.04444-.67676.62256-.67676.26709,0,1.73487.09668,5.96045.09668Zm14.41113,19.72265V65.64648H300.15449v1.78808Zm0,5.22071V70.86718H300.15449v1.78809Zm-13.25488,5.26855h13.25488V76.08788H300.15449Z"/><path class="cls-1" d="M332.75752,47.42187c0-.62891.04443-.67676.62256-.67676.26709,0,1.3789.09668,4.71484.09668h5.0708c3.33594,0,4.44776-.09668,4.71485-.09668.57812,0,.62255.04785.62255.67676v4.39844c0,.6289-.04443.67773-.62255.67773-.26709,0-1.37891-.09766-4.71485-.09766h-5.0708c-3.33594,0-4.44775.09766-4.71484.09766-.57813,0-.62256-.04883-.62256-.67773ZM339.385,83.48339c0,.58008-.04443.62793-.62256.62793h-3.82568c-.62256,0-.667-.04785-.667-.62793,0-.38672.08886-1.59472.08886-7.49316V72.80078c0-3.19141-.08886-4.4961-.08886-4.88282,0-.58008.04443-.6289.667-.6289.31152,0,1.2456.09765,4.09228.09765h3.6919c2.84668,0,3.78076-.09765,4.13672-.09765.53369,0,.57812.04882.57812.6289,0,.33789-.08887,1.64356-.08887,3.96387v3.52832c0,5.60742.08887,6.81641.08887,7.1543,0,.58008-.04443.6289-.57812.6289h-3.8252c-.57861,0-.623-.04882-.623-.6289V81.45312H339.385ZM334.49238,40.751c0-.62793.04444-.67676.57813-.67676.311,0,1.20068.09668,4.04736.09668h3.64746c2.80225,0,3.6919-.09668,4.00293-.09668.57861,0,.623.04883.623.67676v3.57715c0,.62891-.04444.67676-.623.67676-.311,0-1.20068-.09668-4.00293-.09668h-3.64746c-2.84668,0-3.73633.09668-4.04736.09668-.53369,0-.57813-.04785-.57813-.67676Zm19.17041,7.20215c0-.24121.04444-.72461.04444-1.54688-3.20264,0-4.40332.09766-4.626.09766-.57813,0-.62256-.04883-.62256-.67773V42.15234c0-.62793.04443-.67578.62256-.67578.22266,0,1.42334.0957,4.67041.0957a16.8941,16.8941,0,0,0-.17773-2.99609c1.68994.04785,3.4248.14453,5.07031.28906.44482.04883.66748.24219.66748.48437a1.02544,1.02544,0,0,1-.22266.67578,2.40433,2.40433,0,0,0-.22217,1.25782v.28906h4.40332a17.2415,17.2415,0,0,0-.17773-2.99609c1.73486.04785,3.4248.14453,5.02588.28906.48926.04883.71191.24219.71191.48437a1.02542,1.02542,0,0,1-.22265.67578,2.40423,2.40423,0,0,0-.22217,1.25782v.28906c3.82519,0,5.2041-.0957,5.51562-.0957.57813,0,.62256.04785.62256.67578v3.67383c0,.6289-.04443.67773-.62256.67773-.31152,0-1.69043-.09766-5.47119-.09766,0,.82227.04444,1.35352.04444,1.54688,0,.62891-.04444.67773-.667.67773h-2.80224c.31152.04786.62256.14453.88965.19336.35546.09571.48925.28907.48925.48242,0,.291-.13379.38672-.356.53223a2.2631,2.2631,0,0,0-.48926.62793h2.53516c3.42529,0,4.5371-.0957,4.84863-.0957.57812,0,.62256.04785.62256.67578v2.32031c0,.58008-.04444.62891-.62256.62891-.31153,0-1.42334-.09668-4.84863-.09668h-2.624v1.54687h1.55664c2.40186,0,4.18115-.09668,4.49268-.09668.57812,0,.62256.04883.62256.62891v1.69141c0,.58007-.04444.6289-.62256.6289-.31153,0-2.09082-.09765-4.44824-.09765H365.4499v1.499h1.55664c2.40186,0,4.22559-.09668,4.49268-.09668.57812,0,.62256.04883.62256.72461v1.5957c0,.62891-.04444.67676-.62256.67676-.26709,0-2.09082-.09668-4.44824-.09668H365.4499v1.54688h2.313c4.04736,0,5.42627-.09668,5.73779-.09668.57813,0,.62256.04785.62256.72558v2.416c0,.58008-.04443.6289-.62256.6289-.31152,0-1.69043-.09668-5.73779-.09668H356.33174c-4.04785,0-5.42676.09668-5.7378.09668-.57861,0-.57861-.04882-.57861-.6289,0-.28907.08887-1.78809.08887-4.97852V59.07226a4.00508,4.00508,0,0,1-1.06738-1.16016,12.82592,12.82592,0,0,0-2.26856-2.32031v2.75488c0,.62793-.04443.67676-.62256.67676-.31152,0-1.11181-.09668-3.78076-.09668h-3.06885c-2.66894,0-3.46972.09668-3.78076.09668-.53369,0-.57861-.04883-.57861-.67676V54.86621c0-.62793.04492-.67676.57861-.67676.311,0,1.11182.09668,3.78076.09668h3.06885c2.66895,0,3.46924-.09668,3.78076-.09668.57813,0,.62256.04883.62256.67676v.58007a20.74463,20.74463,0,0,0,4.40381-5.26855,10.55627,10.55627,0,0,0,.97852-2.32031c.53369.0957,1.06738.14453,1.5122.24121Zm-18.72607,13.3418c0-.58008.04492-.62793.57861-.62793.311,0,1.11182.09668,3.78076.09668h3.06885c2.66895,0,3.46924-.09668,3.78076-.09668.57813,0,.62256.04785.62256.62793v3.52929c0,.62891-.04443.67676-.62256.67676-.31152,0-1.11181-.09668-3.78076-.09668h-3.06885c-2.66894,0-3.46972.09668-3.78076.09668-.53369,0-.57861-.04785-.57861-.67676Zm7.47265,15.373V72.17187H339.385V76.668Zm12.98829-3.09375c-3.87012,0-5.29346.09571-5.56006.09571-.57813,0-.62256-.04786-.62256-.67579V69.60937c0-.62793.04443-.67578.62256-.67578.2666,0,1.68994.0957,5.64892.0957H366.384a3.82462,3.82462,0,0,0,1.29-.14453,1.26166,1.26166,0,0,1,.62256-.19336c.44483,0,.93408.29,2.313,1.498,1.42334,1.30566,1.86816,1.93359,1.86816,2.32031a1.03273,1.03273,0,0,1-.66748,1.06445,8.93746,8.93746,0,0,0-1.5122,1.30469,32.46893,32.46893,0,0,1-2.98,2.80371,57.51415,57.51415,0,0,0,7.87255.58008,15.73951,15.73951,0,0,0-1.60107,3.77051c-.57812,1.98242-.57812,1.98242-2.35742,1.78906a36.35044,36.35044,0,0,1-10.00781-2.418,36.33247,36.33247,0,0,1-9.47413,2.51367c-1.82373.291-1.82373.291-2.53515-1.64258a14.2898,14.2898,0,0,0-1.73486-3.33593,46.92786,46.92786,0,0,0,7.91748-.9668,23.9658,23.9658,0,0,1-2.53565-2.36914c-.22217-.24121-.311-.38672-.311-.48242,0-.14551.1333-.24219.3999-.33887Zm4.84814-19.6748h-4.67041v1.54687h4.67041Zm-4.67041,4.30176v1.499h4.67041v-1.499Zm0,4.30273v1.54688h4.67041V62.5039Zm.57812-13.873c.93409.28907,1.11231.38672,1.11231.72461a.93743.93743,0,0,1-.40039.72461,2.792,2.792,0,0,0-.31152.38672h3.82519a7.39943,7.39943,0,0,0,.44483-1.0625,8.83352,8.83352,0,0,0,.40039-1.45117c.667.09766,1.33447.19336,1.957.33887v-.33887c0-.24121.04443-.72461.04443-1.54688h-4.31445c0,.82227.04443,1.35352.04443,1.54688,0,.62891-.04443.67773-.62256.67773Zm1.51221,24.94336a16.89365,16.89365,0,0,0,3.6919,2.36817,19.85719,19.85719,0,0,0,3.73632-2.36817Z"/><path class="cls-2" d="M180.27764,105.085V94.58052h3.96317a9.41482,9.41482,0,0,1,1.59849.10069,3.16134,3.16134,0,0,1,1.29643.4898,2.572,2.572,0,0,1,.84278,1.01344,3.41782,3.41782,0,0,1-.53527,3.70155,4.08754,4.08754,0,0,1-3.08076.92792h-2.69355V105.085Zm1.39129-5.51035h2.7161a2.8743,2.8743,0,0,0,1.91143-.50108,1.78666,1.78666,0,0,0,.56756-1.41228,1.89444,1.89444,0,0,0-.33394-1.12733,1.55772,1.55772,0,0,0-.877-.62082,5.926,5.926,0,0,0-1.29838-.09291h-2.68578Z"/><path class="cls-2" d="M190.089,105.085V94.58052h4.65823a6.197,6.197,0,0,1,2.13339.283,2.33389,2.33389,0,0,1,1.16932,1.00022,2.98381,2.98381,0,0,1,.43655,1.58294,2.64823,2.64823,0,0,1-.72305,1.885,3.66961,3.66961,0,0,1-2.236.97379,3.58534,3.58534,0,0,1,.8389.52363,7.15453,7.15453,0,0,1,1.15221,1.39712l1.82786,2.85877H197.5982l-1.38935-2.1847q-.60935-.94814-1.00411-1.44844a3.15651,3.15651,0,0,0-.70633-.70244,2.11434,2.11434,0,0,0-.634-.27873,4.07478,4.07478,0,0,0-.77242-.05131H191.4787V105.085Zm1.38973-5.86915h2.98744a4.44816,4.44816,0,0,0,1.492-.19748,1.58036,1.58036,0,0,0,.81635-.63014,1.70354,1.70354,0,0,0,.27873-.94152,1.56675,1.56675,0,0,0-.54072-1.22608,2.53767,2.53767,0,0,0-1.70851-.48009H191.4787Z"/><path class="cls-2" d="M200.242,99.96958a5.7056,5.7056,0,0,1,1.4049-4.09651,4.7775,4.7775,0,0,1,3.62536-1.47836,5.02339,5.02339,0,0,1,2.62125.69467,4.53645,4.53645,0,0,1,1.78236,1.93785A6.30071,6.30071,0,0,1,210.287,99.846a6.2029,6.2029,0,0,1-.64336,2.86072,4.41532,4.41532,0,0,1-1.82784,1.90947,5.21316,5.21316,0,0,1-2.55128.64725,4.96243,4.96243,0,0,1-2.65157-.71567,4.60862,4.60862,0,0,1-1.76914-1.9569A5.9102,5.9102,0,0,1,200.242,99.96958Zm1.43328.0206a4.20568,4.20568,0,0,0,1.02121,2.99172,3.559,3.559,0,0,0,5.14378-.01166,4.45641,4.45641,0,0,0,1.01381-3.13011,5.38831,5.38831,0,0,0-.43266-2.23951,3.33217,3.33217,0,0,0-1.26806-1.48264,3.44268,3.44268,0,0,0-1.87372-.52752,3.55825,3.55825,0,0,0-2.54156,1.01344A4.53654,4.53654,0,0,0,201.67527,99.99018Z"/><path class="cls-2" d="M212.079,105.085V94.58052h3.61953a8.7522,8.7522,0,0,1,1.86982.15006,3.56413,3.56413,0,0,1,1.54136.75181A4.28423,4.28423,0,0,1,220.3529,97.278a7.07621,7.07621,0,0,1,.41168,2.49763,7.35829,7.35829,0,0,1-.27871,2.12056,5.17209,5.17209,0,0,1-.71763,1.52968,3.78444,3.78444,0,0,1-.95668.95279,3.90418,3.90418,0,0,1-1.25445.52791,7.16333,7.16333,0,0,1-1.68751.17843Zm1.39129-1.23968h2.24146a5.43691,5.43691,0,0,0,1.63075-.19359,2.35481,2.35481,0,0,0,.94346-.54462,3.31828,3.31828,0,0,0,.76853-1.32871,6.48931,6.48931,0,0,0,.27717-2.02532,4.88959,4.88959,0,0,0-.54112-2.53223,2.72464,2.72464,0,0,0-1.3151-1.18642,5.4664,5.4664,0,0,0-1.79946-.2142h-2.20569Z"/><path class="cls-2" d="M229.57024,94.58052h1.38935v6.06857a7.226,7.226,0,0,1-.35686,2.51474,3.07006,3.07006,0,0,1-1.2945,1.51685,4.57861,4.57861,0,0,1-2.45409.58272,5.03836,5.03836,0,0,1-2.41445-.50886,2.8985,2.8985,0,0,1-1.34036-1.471,7.02576,7.02576,0,0,1-.4004-2.63447V94.58052h1.38935v6.0608a5.92212,5.92212,0,0,0,.25462,2.01754,1.93071,1.93071,0,0,0,.87505,1.00061,3.03144,3.03144,0,0,0,1.51451.351,2.89451,2.89451,0,0,0,2.18471-.69467,4.011,4.011,0,0,0,.65307-2.67451Z"/><path class="cls-2" d="M240.769,101.40247l1.38974.351a4.67591,4.67591,0,0,1-1.57167,2.61193,4.34548,4.34548,0,0,1-2.77713.898,4.982,4.982,0,0,1-2.76159-.69117,4.3062,4.3062,0,0,1-1.61909-2.00239,7.14552,7.14552,0,0,1-.55628-2.81679,6.19419,6.19419,0,0,1,.62626-2.86226,4.29973,4.29973,0,0,1,1.7843-1.85467,5.21219,5.21219,0,0,1,2.54739-.636,4.30309,4.30309,0,0,1,2.65159.80313,4.16411,4.16411,0,0,1,1.49779,2.25662l-1.36874.323a3.24012,3.24012,0,0,0-1.06087-1.66846,2.82119,2.82119,0,0,0-1.74815-.524,3.38942,3.38942,0,0,0-2.02337.58077,3.0497,3.0497,0,0,0-1.14289,1.55845,6.2658,6.2658,0,0,0-.33042,2.01754,6.41456,6.41456,0,0,0,.39106,2.33864,2.89853,2.89853,0,0,0,1.21481,1.49392,3.39792,3.39792,0,0,0,1.7843.49525,3.00016,3.00016,0,0,0,1.97791-.67368A3.45814,3.45814,0,0,0,240.769,101.40247Z"/><path class="cls-2" d="M243.901,105.085V94.58052h7.59437V95.8202h-6.205v3.21719h5.81045v1.23191h-5.81045v3.576h6.448V105.085Z"/><path class="cls-2" d="M253.65949,105.085V94.58052H257.279a8.75237,8.75237,0,0,1,1.86983.15006,3.56406,3.56406,0,0,1,1.54134.75181,4.28427,4.28427,0,0,1,1.24318,1.79558,7.07643,7.07643,0,0,1,.41169,2.49763,7.35789,7.35789,0,0,1-.27874,2.12056,5.17158,5.17158,0,0,1-.71761,1.52968,3.79074,3.79074,0,0,1-.95668.95279,3.90293,3.90293,0,0,1-1.25484.52791,7.15768,7.15768,0,0,1-1.68712.17843Zm1.39129-1.23968h2.24145a5.43682,5.43682,0,0,0,1.63075-.19359,2.35052,2.35052,0,0,0,.94308-.54462,3.31448,3.31448,0,0,0,.76892-1.32871,6.4896,6.4896,0,0,0,.27717-2.02532,4.88949,4.88949,0,0,0-.54112-2.53223,2.72542,2.72542,0,0,0-1.31549-1.18642,5.46527,5.46527,0,0,0-1.79906-.2142h-2.2057Z"/><path class="cls-2" d="M268.27677,105.085V94.58052h3.94062a4.886,4.886,0,0,1,1.93241.31916,2.48255,2.48255,0,0,1,1.13861.98117,2.58193,2.58193,0,0,1,.41206,1.38546,2.39085,2.39085,0,0,1-.36463,1.27,2.6161,2.6161,0,0,1-1.1044.95862,2.74917,2.74917,0,0,1,1.46515.95474,2.549,2.549,0,0,1,.51235,1.59071,3.08512,3.08512,0,0,1-.311,1.37224,2.683,2.683,0,0,1-.77086.97768,3.21634,3.21634,0,0,1-1.15027.51974,7.05275,7.05275,0,0,1-1.6949.17493Zm1.39129-6.09112h2.27022a5.05757,5.05757,0,0,0,1.32676-.12167,1.47163,1.47163,0,0,0,.79924-.52363,1.50851,1.50851,0,0,0,.26745-.917,1.69742,1.69742,0,0,0-.25034-.92053,1.27731,1.27731,0,0,0-.71761-.54462,6.027,6.027,0,0,0-1.59616-.14617h-2.09956Zm0,4.85144h2.61386a6.21553,6.21553,0,0,0,.947-.04937,2.29281,2.29281,0,0,0,.80313-.28844,1.52173,1.52173,0,0,0,.52946-.58272,1.82552,1.82552,0,0,0,.2068-.88438,1.73871,1.73871,0,0,0-.29971-1.02121,1.58555,1.58555,0,0,0-.8354-.60954,5.15108,5.15108,0,0,0-1.53745-.17649h-2.42766Z"/><path class="cls-2" d="M281.08331,105.085v-4.44948l-4.04869-6.055H278.726l2.0708,3.16626q.57261.88808,1.06671,1.77848.47287-.82569,1.14678-1.85622l2.03463-3.08852H286.664l-4.191,6.055V105.085Z"/><polygon class="cls-3" points="293.57 104.884 293.57 91.712 295.989 91.712 295.989 103.01 301.177 103.01 301.177 104.884 293.57 104.884"/><path class="cls-3" d="M309.94275,104.5629a10.07481,10.07481,0,0,1-3.12621.54656,4.856,4.856,0,0,1-2.44478-.59593,3.8772,3.8772,0,0,1-1.62492-1.85272,6.72731,6.72731,0,0,1-.56367-2.739,6.52065,6.52065,0,0,1,.482-2.53185,4.19988,4.19988,0,0,1,1.3952-1.84144,3.72467,3.72467,0,0,1,2.26437-.67368,3.22843,3.22843,0,0,1,2.631,1.19769c.65852.80313.987,2.28733.987,4.4662H304.6221a4.01834,4.01834,0,0,0,.393,1.56428,2.50937,2.50937,0,0,0,.856.91275,2.73061,2.73061,0,0,0,1.45037.3382,6.64576,6.64576,0,0,0,2.62126-.6418Zm-5.3603-5.51035h3.06908a3.51317,3.51317,0,0,0-.39651-1.9398,1.16553,1.16553,0,0,0-1.01188-.58077,1.30466,1.30466,0,0,0-1.11412.63947A3.94273,3.94273,0,0,0,304.58245,99.05255Z"/><path class="cls-3" d="M314.517,104.8836l-3.31981-9.78489H313.64l2.42611,7.06685,2.40278-7.06685H320.151l-3.33341,9.78489Z"/><path class="cls-3" d="M328.90494,104.5629a9.989,9.989,0,0,1-3.11689.54656,4.89972,4.89972,0,0,1-2.45216-.59593,3.79381,3.79381,0,0,1-1.61518-1.85272,6.90417,6.90417,0,0,1-.08748-5.27089,4.15039,4.15039,0,0,1,1.39906-1.84144,3.71016,3.71016,0,0,1,2.25856-.67368,3.23651,3.23651,0,0,1,2.63642,1.19769c.655.80313.97767,2.28733.97767,4.4662h-5.31287a3.91577,3.91577,0,0,0,.395,1.56428,2.46725,2.46725,0,0,0,.8521.91275,2.73116,2.73116,0,0,0,1.44455.3382,6.57762,6.57762,0,0,0,2.62125-.6418Zm-5.35641-5.51035h3.0788a3.59742,3.59742,0,0,0-.3969-1.9398,1.19249,1.19249,0,0,0-1.01927-.58077,1.31562,1.31562,0,0,0-1.118.63947A4.03321,4.03321,0,0,0,323.54853,99.05255Z"/><path class="cls-3" d="M331.34037,104.8836V95.09871h2.33281v1.85466a3.80715,3.80715,0,0,1,1.13317-1.51685,2.58147,2.58147,0,0,1,1.61715-.56172,3.141,3.141,0,0,1,.43073.02837v2.367a2.52518,2.52518,0,0,0-.92054-.19553,2.12352,2.12352,0,0,0-1.26027.4004,3.46173,3.46173,0,0,0-1.00024,1.20741v6.20113Z"/><path class="cls-3" d="M342.88275,103.84529a4.52835,4.52835,0,0,1-.8731.78408,2.86313,2.86313,0,0,1-.76893.3588,2.98124,2.98124,0,0,1-.84628.12129,2.31618,2.31618,0,0,1-1.85466-.8179,2.9651,2.9651,0,0,1-.69662-2.00822,3.15377,3.15377,0,0,1,1.05154-2.4125,4.89056,4.89056,0,0,1,3.38434-.9664h.61693v-.877a1.35965,1.35965,0,0,0-.43656-1.188,1.90825,1.90825,0,0,0-1.118-.30749,5.18241,5.18241,0,0,0-2.73321.85794V95.5582a7.89879,7.89879,0,0,1,3.14138-.6834,4.75665,4.75665,0,0,1,1.71394.29233,2.72257,2.72257,0,0,1,1.21092.91664,3.164,3.164,0,0,1,.45211,1.85466v4.33325c0,.53179.07.85989.21612.97573a.6795.6795,0,0,0,.43111.18037,1.96774,1.96774,0,0,0,.30944-.02837l.04548,1.4597a4.20082,4.20082,0,0,1-1.31354.25035,2.41778,2.41778,0,0,1-1.11257-.2449,1.615,1.615,0,0,1-.71722-1.01927Zm.01322-1.40645v-2.02726h-.54851a2.68647,2.68647,0,0,0-1.71977.46492,1.49345,1.49345,0,0,0-.56367,1.16932,1.33644,1.33644,0,0,0,.34558.93958,1.057,1.057,0,0,0,.8008.36852,1.70245,1.70245,0,0,0,.8354-.23363A3.28888,3.28888,0,0,0,342.896,102.43884Z"/><path class="cls-3" d="M348.17462,107.89787l.19359-1.90209a5.86736,5.86736,0,0,0,2.70483.74443,2.56185,2.56185,0,0,0,1.81307-.57727,2.80881,2.80881,0,0,0,.60332-2.0537v-1.32482a3.69,3.69,0,0,1-1.08572,1.51452,2.57859,2.57859,0,0,1-1.693.58466,2.828,2.828,0,0,1-1.75592-.5695,3.55474,3.55474,0,0,1-1.16153-1.71588,7.62149,7.62149,0,0,1-.40429-2.55478,6.58426,6.58426,0,0,1,.96988-3.68056,3.0801,3.0801,0,0,1,2.70678-1.48808,3.25475,3.25475,0,0,1,.84278.10612,3.03942,3.03942,0,0,1,.73821.33043,5.06143,5.06143,0,0,1,.84278.76114l.24685-.97378h2.08791v7.45208a10.42534,10.42534,0,0,1-.505,3.97873,3.30511,3.30511,0,0,1-1.54136,1.54095,5.17877,5.17877,0,0,1-2.37051.52013A8.6177,8.6177,0,0,1,348.17462,107.89787Zm5.31481-6.65284V97.61772a2.90147,2.90147,0,0,0-.91275-.86377,1.733,1.733,0,0,0-.81439-.222,1.54083,1.54083,0,0,0-1.3707.91081,4.97611,4.97611,0,0,0-.51974,2.47548,4.47246,4.47246,0,0,0,.41361,2.10112,1.29706,1.29706,0,0,0,1.18643.765,1.72368,1.72368,0,0,0,1.0628-.38368A4.109,4.109,0,0,0,353.48943,101.245Z"/><path class="cls-3" d="M365.70976,104.5629a10.01949,10.01949,0,0,1-3.11883.54656,4.88705,4.88705,0,0,1-2.45021-.59593,3.85061,3.85061,0,0,1-1.621-1.85272,6.69669,6.69669,0,0,1-.56562-2.739,6.52047,6.52047,0,0,1,.482-2.53185,4.20645,4.20645,0,0,1,1.39867-1.84144,3.716,3.716,0,0,1,2.26284-.67368,3.23406,3.23406,0,0,1,2.63253,1.19769c.65307.80313.97961,2.28733.97961,4.4662h-5.309a3.988,3.988,0,0,0,.38524,1.56428,2.516,2.516,0,0,0,.85989.91275,2.70872,2.70872,0,0,0,1.44806.3382,6.59038,6.59038,0,0,0,2.61579-.6418ZM360.353,99.05255h3.07335a3.60011,3.60011,0,0,0-.39495-1.9398A1.18517,1.18517,0,0,0,362.014,96.532a1.31488,1.31488,0,0,0-1.11606.63947A4.06048,4.06048,0,0,0,360.353,99.05255Z"/><path class="cls-3" d="M367.89835,104.5629v-1.93047a7.13639,7.13639,0,0,0,2.95907.81635,1.59147,1.59147,0,0,0,1.03637-.30944.97108.97108,0,0,0,.39107-.79535.95042.95042,0,0,0-.29233-.70051,3.17246,3.17246,0,0,0-.88281-.54462l-.78954-.35491a5.16954,5.16954,0,0,1-1.79167-1.22064,2.49849,2.49849,0,0,1-.58273-1.71783,2.75968,2.75968,0,0,1,.875-2.09918,3.77421,3.77421,0,0,1,2.67995-.8315,10.90791,10.90791,0,0,1,2.50191.34753v1.85233a6.7398,6.7398,0,0,0-2.32348-.54268,1.76888,1.76888,0,0,0-1.08185.27911.8832.8832,0,0,0-.36075.72694.90392.90392,0,0,0,.23363.615,2.2301,2.2301,0,0,0,.835.52363l.67951.29428a5.63016,5.63016,0,0,1,2.18315,1.39712,2.65033,2.65033,0,0,1,.51235,1.63813,2.97905,2.97905,0,0,1-.93763,2.17149,3.73231,3.73231,0,0,1-2.72582.9318A9.67464,9.67464,0,0,1,367.89835,104.5629Z"/><path class="cls-3" d="M77.80252,41.03344l5.99284-.00127a.59706.59706,0,0,1,.59719.597L84.394,75.393l.44539.00266c6.20874-.59141,16.47777-6.12615,18.43721-18.45938a.59435.59435,0,0,1,.58324-.50646h6.5279a.60647.60647,0,0,1,.59724.69688c-2.539,15.85769-15.37851,26.14364-33.16267,26.53612a.60694.60694,0,0,1-.61677-.60386V41.6305A.59705.59705,0,0,1,77.80252,41.03344Z"/><path class="cls-3" d="M257.61544,41.03344l5.99322-.00127a.59706.59706,0,0,1,.59719.597s.0015,31.81453.0015,32.39864a.33516.33516,0,0,0,.50793.35039c1.96538-.293,6.00294-2.43287,9.2109-5.50922a.59314.59314,0,0,1,1.004.42453l.061,7.068a.589.589,0,0,1-.21585.46939c-3.51706,2.84292-10.92189,6.511-17.12783,6.90641a.60012.60012,0,0,1-.629-.60428V41.6305A.59705.59705,0,0,1,257.61544,41.03344Z"/><path class="cls-3" d="M237.0945,82.76445a.59518.59518,0,0,1-.54687-.83615,77.58251,77.58251,0,0,0,5.80834-30.206V41.6305a.59706.59706,0,0,1,.59694-.59706l6.27166-.00128a.59706.59706,0,0,1,.59718.597l.00143,9.396c0,15.03157-3.08212,26.57769-5.29124,31.13514a1.05879,1.05879,0,0,1-.95283.60415Z"/><path class="cls-3" d="M172.80445,77.5184a.59366.59366,0,0,1,.57245-.58857c10.512-.50654,16.78974-8.73922,16.85829-22.56531,0,0,.06665-.6399-.72661-.6399H170.89986a.59706.59706,0,0,0-.59706.59695l-.00131,7.4018a.59707.59707,0,0,1-.59692.597l-5.37752.00124a.597.597,0,0,1-.59719-.597l-.00141-13.83519a.59707.59707,0,0,1,.597-.59712l11.88637-.00142a.34428.34428,0,0,0,.34424-.34419l.00129-5.34338a.59707.59707,0,0,1,.59694-.59692l6.07433-.00127a.597.597,0,0,1,.59718.59691l.0013,5.34314a.34426.34426,0,0,0,.34423.34419l12.7531.00143a.60726.60726,0,0,1,.60164.59337c.27806,13.47828-2.44222,23.26363-8.09143,29.09249-3.91708,4.0425-9.29856,6.191-16.00761,6.39526a.60856.60856,0,0,1-.62257-.60436Z"/><path class="cls-3" d="M207.143,82.16755l-.00122-4.75059a.597.597,0,0,1,.59691-.59721l5.11153-.00127a.43709.43709,0,0,0,.437-.437l.00141-11.06741a.43709.43709,0,0,0-.437-.43714l-5.29781-.00127a.59706.59706,0,0,1-.59691-.59691l-.00122-4.75025a.597.597,0,0,1,.597-.59721l18.00663-.00143a.597.597,0,0,1,.5971.5969l.00122,4.75017a.59705.59705,0,0,1-.5969.59721l-4.94109.00126a.4371.4371,0,0,0-.437.437l-.00141,11.06741a.43708.43708,0,0,0,.437.43714l5.10105.00127a.59705.59705,0,0,1,.59691.5969l.00122,4.75212a.59706.59706,0,0,1-.59706.59721H207.74006A.59705.59705,0,0,1,207.143,82.16755Z"/><path class="cls-3" d="M117.84371,82.76445a.59284.59284,0,0,1-.53768-.85493c1.90389-3.82157,6.40817-14.68283,6.40817-31.88724V41.6305a.59706.59706,0,0,1,.59693-.59706l6.13249-.00128a.59705.59705,0,0,1,.59718.597l.00143,8.39316c0,19.36033-4.63286,29.95491-5.8587,32.41853a.585.585,0,0,1-.53151.32364Z"/><path class="cls-3" d="M146.59024,82.76449a.58493.58493,0,0,1-.53191-.32475c-1.071-2.17292-5.23-11.64443-5.794-28.56086a.60661.60661,0,0,1,.6001-.626h6.15145a.598.598,0,0,1,.59229.57715c.63707,15.98857,5.17479,25.87707,6.57429,28.56717a.24644.24644,0,0,1-.008.24443.25245.25245,0,0,1-.21927.12279Z"/><rect class="cls-3" x="140.21729" y="41.03204" width="5.8201" height="8.26114" rx="0.59706"/><rect class="cls-3" x="148.91942" y="41.03204" width="5.8201" height="8.26114" rx="0.59706"/><path class="cls-4" d="M48.96884,68.05687a5.4242,5.4242,0,0,0,4.95095,5.47379,5.30431,5.30431,0,0,0,5.65682-5.2923V52.68367a5.28557,5.28557,0,0,0-5.15-5.32971,8.89762,8.89762,0,0,1-9.11751-8.34375,5.32581,5.32581,0,0,0-5.73916-5.373H25.19045c-3.37587,0-5.85872,2.14565-6.04243,4.98315a5.33929,5.33929,0,0,0,5.32721,5.6937h15.5144a2.72593,2.72593,0,0,1,2.44025,1.24784,13.08283,13.08283,0,0,0,5.36542,5.00336,2.14487,2.14487,0,0,1,1.17573,1.985Z"/><path class="cls-5" d="M6.86515,94.15266A6.8653,6.8653,0,1,0,0,87.28731,6.86535,6.86535,0,0,0,6.86515,94.15266Z"/><path class="cls-6" d="M3.614,69.01225A6.57734,6.57734,0,0,0,9.688,75.841c3.82294.53212,7.935,3.85769,8.36036,8.49408.36906,4.02246,3.02621,6.6404,7.34233,6.6404h18.598a6.63749,6.63749,0,1,0,0-13.275H22.00188c-2.854,0-4.89069-1.75977-4.89069-4.61365l.01539-21.97849a6.75632,6.75632,0,0,0-13.51263,0Z"/><path class="cls-7" d="M54.50807,32.6401a5.48849,5.48849,0,1,0,5.48871,5.48844A5.48859,5.48859,0,0,0,54.50807,32.6401Z"/></g></g></svg>