<svg width="579" height="120" viewBox="0 0 579 120" fill="none" xmlns="http://www.w3.org/2000/svg">
<path d="M117.98 56.48H87.32C86.72 57.68 86.18 58.52 86.06 58.76H111.98C115.22 58.76 117.68 59.84 117.68 64.4V81.08C117.68 85.28 115.64 86.78 111.98 86.78H84.26C80.96 86.78 78.5 85.7 78.5 81.08V68.36C77.66 69.2 72.92 73.94 70.64 73.94C68.84 73.94 66.98 72.14 66.98 69.98C66.98 68.66 67.7 68.06 68.96 66.98C73.94 62.72 76.28 60.68 79.1 56.48H72.5C70.22 56.48 67.7 56.48 67.7 53.54C67.7 50.54 70.22 50.54 72.5 50.54H82.4C83.06 48.92 83.24 48.38 83.42 47.78H74.54C72.44 47.78 69.74 47.78 69.74 45.08C69.74 42.32 72.44 42.32 74.54 42.32H84.98C85.04 42.02 85.16 41.6 85.4 40.52C84.02 40.52 77.3 40.4 75.8 40.4C74.66 40.4 72.26 40.4 72.26 37.4C72.26 34.4 75.2 34.4 75.86 34.4C77.3 34.4 84.26 34.52 85.88 34.52C95.24 34.52 102.98 34.04 108.98 33.38C109.7 33.32 113.18 32.84 114.02 32.84C115.88 32.84 117.02 34.1 117.02 36.02C117.02 38.48 115.28 38.84 114.56 39.02C112.22 39.5 99.92 40.28 92.96 40.4C92.84 41 92.84 41.06 92.54 42.32H115.88C117.98 42.32 120.68 42.32 120.68 45.08C120.68 47.78 117.98 47.78 115.88 47.78H90.92C90.38 49.28 90.2 49.88 89.96 50.54H117.98C120.26 50.54 122.78 50.54 122.78 53.54C122.78 56.48 120.26 56.48 117.98 56.48ZM110.48 71.42H85.64V73.88H110.48V71.42ZM85.64 66.74H110.48V65.72C110.48 64.88 110.06 64.4 109.16 64.4H87.02C86 64.4 85.64 64.94 85.64 65.72V66.74ZM110.48 78.56H85.64V79.82C85.64 80.66 86 81.2 87.02 81.2H109.16C110.06 81.2 110.48 80.66 110.48 79.82V78.56ZM169.22 50.3V52.04H174.8C177.62 52.04 179.42 52.04 179.42 54.14C179.42 56.24 177.68 56.24 174.8 56.24H169.22V58.16H174.8C177.62 58.16 179.42 58.16 179.42 60.26C179.42 62.36 177.68 62.36 174.8 62.36H169.22V64.46H175.88C178.22 64.46 180.32 64.46 180.32 66.68C180.32 68.96 178.22 68.96 175.88 68.96H154.64C151.76 68.96 148.76 68.96 148.76 63.8V57.08C148.46 57.14 148.22 57.26 147.8 57.26C147.38 57.26 145.88 57.26 145.1 55.46C144.2 56.54 143.66 56.54 140.96 56.54H133.04C130.88 56.54 128.24 56.54 128.24 53.72C128.24 50.84 130.88 50.84 133.04 50.84H140.96C143.66 50.84 144.74 50.84 145.52 52.64C146.18 51.62 149.24 47.18 149.84 46.28C152.12 42.62 152.36 42.2 153.92 42.2C154.34 42.2 154.52 42.26 154.82 42.32C154.76 41.96 154.7 41.78 154.7 41.42H151.4C149.18 41.42 146.6 41.42 146.6 38.48C146.6 35.6 149.18 35.54 151.4 35.54H154.7C154.76 34.76 154.88 32.36 157.76 32.36C160.88 32.36 161 34.52 161.06 35.54H168.44C168.44 34.7 168.62 32.36 171.5 32.36C174.68 32.36 174.8 34.46 174.86 35.54H176.48C178.7 35.54 181.28 35.6 181.28 38.48C181.28 41.42 178.7 41.42 176.48 41.42H174.86C174.74 43.04 173.96 44.36 171.62 44.36C169.34 44.36 168.56 43.1 168.44 41.42H161.06C160.94 42.92 160.28 44.36 157.88 44.36C157.34 44.36 157.16 44.3 156.92 44.3C157.1 44.9 157.16 45.14 157.04 45.74H162.02L162.74 44.42C163.4 43.22 164.12 42.08 166.1 42.08C167.78 42.08 169.46 43.16 169.46 44.84C169.46 45.26 169.34 45.5 169.28 45.74H175.7C178.04 45.74 180.14 45.74 180.14 48.02C180.14 50.3 178.04 50.3 175.7 50.3H169.22ZM162.44 58.16V56.24H155.66V58.16H162.44ZM162.44 52.04V50.3H157.76C156.26 50.3 155.72 50.54 155.66 52.04H162.44ZM162.44 64.46V62.36H155.66C155.72 63.98 156.02 64.46 157.76 64.46H162.44ZM131 42.2H142.28C144.68 42.2 147.08 42.2 147.08 45.26C147.08 48.5 144.86 48.5 142.28 48.5H131C128.66 48.5 126.2 48.5 126.2 45.44C126.2 42.2 128.48 42.2 131 42.2ZM152.3 70.52H175.76C177.86 70.52 179.9 71.42 179.9 74C179.9 75.5 179.36 77.36 173.48 81.02C174.38 81.2 178.94 81.74 179.96 82.04C181.04 82.34 181.7 83.24 181.7 84.56C181.7 87.92 179.18 87.92 178.16 87.92C176.54 87.92 170.24 87.44 164.54 85.16C157.76 87.44 150.26 87.8 149.9 87.8C148.52 87.8 146.3 87.38 146.3 84.5C146.3 82.4 147.92 81.8 148.34 81.68C148.88 81.5 154.88 80.9 156.08 80.78C155.36 80.24 152.36 78.02 150.86 75.56C149.84 75.56 147.56 75.26 147.56 73.04C147.56 70.58 150.32 70.52 152.3 70.52ZM169.64 75.56H159.92C161.24 76.76 162.56 77.54 165.02 78.68C166.22 78.26 170.42 76.7 170.42 75.92C170.42 75.62 169.94 75.56 169.64 75.56ZM146.06 71.78V81.44C146.06 84.68 144.2 86.24 141.02 86.24H133.34C129.26 86.24 128.24 83.78 128.24 81.44V71.78C128.24 68.48 130.1 66.92 133.34 66.92H141.02C145.04 66.92 146.06 69.44 146.06 71.78ZM140.06 77.9V74.9C140.06 73.58 139.7 73.28 138.56 73.28H136.04C134.9 73.28 134.54 73.58 134.54 74.9V77.9C134.54 79.22 134.9 79.52 136.04 79.52H138.56C139.7 79.52 140.06 79.22 140.06 77.9ZM132.8 34.28H140.72C142.82 34.28 145.46 34.28 145.46 37.1C145.46 39.86 142.82 39.86 140.72 39.86H132.8C130.7 39.86 128.06 39.86 128.06 37.1C128.06 34.28 130.7 34.28 132.8 34.28ZM133.04 58.88H140.96C143.12 58.88 145.76 58.88 145.76 61.76C145.76 64.58 143.12 64.58 140.96 64.58H133.04C130.88 64.58 128.24 64.58 128.24 61.76C128.24 58.88 130.88 58.88 133.04 58.88ZM207.26 44.54V51.44C207.26 57.38 206.42 57.98 200.48 57.98H194.3V63.38H200.12C206.78 63.38 207.26 64.94 207.26 70.7V77.9C207.26 84.68 205.7 84.92 200.18 84.92H194.24C190.94 84.92 187.64 84.92 187.64 80.24V44.36C187.64 40.82 187.64 38.54 192.68 38.48C194.06 33.8 194.48 32.36 197 32.36C199.16 32.36 201.02 33.38 201.02 35.18C201.02 35.72 200.9 36.2 200.24 38.48C206 38.48 207.26 39.38 207.26 44.54ZM194.3 46.76V51.32H199.34C200.72 51.32 200.72 51.14 200.72 49.64V46.76C200.72 45.68 200.66 45.56 199.58 45.56H195.8C194.42 45.56 194.3 45.56 194.3 46.76ZM199.16 70.16H194.3V76.28C194.3 77.48 194.3 78.02 195.68 78.02H199.22C200.48 78.02 200.72 77.84 200.72 76.4V71.66C200.72 70.28 200.6 70.16 199.16 70.16ZM228.44 41.12V45.56H230.06C238.46 45.56 239.78 46.28 239.78 53.6V75.8C239.78 79.82 239.78 83.36 234.44 83.36C232.46 83.36 229.46 82.88 228.44 81.92V83C228.44 85.58 228.44 87.92 224.84 87.92C221.3 87.92 221.3 85.52 221.3 83V52.1H218.9C216.62 52.1 216.56 52.22 216.56 54.14V79.04C216.56 81.56 216.56 83.84 213.38 83.84C209.96 83.84 209.96 81.8 209.96 79.04V52.88C209.96 49.88 209.96 48.32 211.64 46.82C213.02 45.56 214.46 45.56 218.06 45.56H221.3V41.12H213.92C211.4 41.12 209.06 41.12 209.06 37.82C209.06 34.28 211.16 34.28 213.92 34.28H235.94C238.46 34.28 240.8 34.28 240.8 37.58C240.8 41.12 238.76 41.12 235.94 41.12H228.44ZM228.44 52.1V76.28C229.04 75.56 229.88 75.2 230.72 75.2C231.02 75.2 232.52 75.56 232.82 75.56C233.42 75.56 233.42 75.2 233.42 73.94V54.26C233.42 52.1 232.94 52.1 230.72 52.1H228.44Z" fill="#323945"/>
<path d="M263.082 86.016C254.498 86.016 248.466 81.84 246.03 73.836C245.972 73.72 245.972 73.604 245.972 73.488C245.972 73.14 246.204 72.966 246.552 72.85L253.106 71.284C253.222 71.226 253.338 71.226 253.396 71.226C253.744 71.226 253.976 71.458 254.092 71.806C255.774 75.866 258.384 77.722 263.082 77.722C267.548 77.722 270.564 76.272 270.564 72.85C270.564 69.486 267.722 67.688 263.024 66.006L258.964 64.556C251.598 62.004 247.132 57.712 247.132 51.1C247.132 43.56 253.86 38.166 262.618 38.166C270.332 38.166 276.074 41.762 278.394 49.418C278.452 49.534 278.452 49.65 278.452 49.766C278.452 50.056 278.22 50.288 277.872 50.404L270.97 52.144C270.854 52.202 270.738 52.202 270.622 52.202C270.332 52.202 270.1 51.97 269.926 51.622C268.418 47.852 266.04 46.46 262.618 46.46C258.558 46.46 255.948 48.142 255.948 50.868C255.948 53.71 258.326 55.624 263.72 57.422L266.968 58.524C275.32 61.25 279.38 65.252 279.38 72.85C279.38 80.506 272.71 86.016 263.082 86.016ZM295.705 85.784C288.165 85.784 283.815 81.26 283.815 73.778V53.42C283.815 52.898 284.163 52.608 284.627 52.608H291.181C291.703 52.608 291.993 52.898 291.993 53.42V70.472C291.993 75.866 293.965 78.36 298.199 78.36C302.201 78.36 305.971 75.402 305.971 69.196V53.42C305.971 52.898 306.261 52.608 306.783 52.608H313.279C313.801 52.608 314.091 52.898 314.091 53.42V84.334C314.091 84.856 313.801 85.146 313.279 85.146H307.363C306.899 85.146 306.493 84.914 306.493 84.334L306.319 80.622C303.941 84.102 299.823 85.784 295.705 85.784ZM321.169 98.834C320.647 98.834 320.357 98.544 320.357 98.022V53.42C320.357 52.898 320.647 52.608 321.169 52.608H327.085C327.549 52.608 327.955 52.84 327.955 53.42L328.129 57.074C330.449 53.884 334.219 51.97 338.743 51.97C348.023 51.97 353.939 58.872 353.939 68.906C353.939 78.882 348.023 85.784 338.743 85.784C334.451 85.784 330.913 84.102 328.477 81.202V98.022C328.477 98.544 328.187 98.834 327.665 98.834H321.169ZM327.955 68.906C327.955 74.474 331.493 78.36 336.713 78.36C341.933 78.36 345.529 74.474 345.529 68.906C345.529 63.28 341.933 59.394 336.713 59.394C331.493 59.394 327.955 63.28 327.955 68.906ZM359.12 98.834C358.598 98.834 358.308 98.544 358.308 98.022V53.42C358.308 52.898 358.598 52.608 359.12 52.608H365.036C365.5 52.608 365.906 52.84 365.906 53.42L366.08 57.074C368.4 53.884 372.17 51.97 376.694 51.97C385.974 51.97 391.89 58.872 391.89 68.906C391.89 78.882 385.974 85.784 376.694 85.784C372.402 85.784 368.864 84.102 366.428 81.202V98.022C366.428 98.544 366.138 98.834 365.616 98.834H359.12ZM365.906 68.906C365.906 74.474 369.444 78.36 374.664 78.36C379.884 78.36 383.48 74.474 383.48 68.906C383.48 63.28 379.884 59.394 374.664 59.394C369.444 59.394 365.906 63.28 365.906 68.906ZM412.732 85.784C402.292 85.784 395.506 78.766 395.506 68.906C395.506 58.988 402.292 51.97 412.732 51.97C423.172 51.97 429.958 58.988 429.958 68.906C429.958 78.766 423.172 85.784 412.732 85.784ZM403.916 68.906C403.916 74.474 407.512 78.36 412.732 78.36C417.952 78.36 421.548 74.474 421.548 68.906C421.548 63.28 417.952 59.394 412.732 59.394C407.512 59.394 403.916 63.28 403.916 68.906ZM435.107 85.146C434.585 85.146 434.295 84.856 434.295 84.334V53.42C434.295 52.898 434.585 52.608 435.107 52.608H441.023C441.487 52.608 441.893 52.84 441.893 53.42L442.067 57.48C444.271 54 448.099 52.144 451.985 52.144C452.913 52.144 453.551 52.26 454.189 52.376C454.711 52.492 454.885 52.782 454.885 53.246V59.684C454.885 60.206 454.595 60.38 454.189 60.38C453.319 60.38 452.333 60.148 450.999 60.148C446.591 60.148 442.415 63.164 442.415 68.326V84.334C442.415 84.856 442.125 85.146 441.603 85.146H435.107ZM475.556 85.784C468.538 85.784 464.652 81.376 464.652 72.56V59.916H459.896C459.374 59.916 459.084 59.568 459.084 59.104V53.42C459.084 52.898 459.374 52.608 459.896 52.608H464.652V43.85C464.652 43.386 464.942 43.038 465.464 43.038H472.018C472.482 43.038 472.83 43.386 472.83 43.85V52.608H480.544C481.066 52.608 481.356 52.898 481.356 53.42V59.104C481.356 59.568 481.066 59.916 480.544 59.916H472.83V73.082C472.83 76.62 473.932 78.36 476.484 78.36C477.528 78.36 478.282 77.896 478.92 76.794C479.152 76.33 479.558 76.156 480.022 76.388L484.952 78.592C485.242 78.766 485.416 78.998 485.416 79.288C485.416 79.462 485.358 79.694 485.184 79.926C482.864 84.218 479.268 85.784 475.556 85.784Z" fill="#1B91DE"/>
<path d="M492.256 84.728C490.456 84.728 489.088 83.432 489.088 81.632C489.088 79.832 490.456 78.572 492.256 78.572C494.056 78.572 495.424 79.832 495.424 81.632C495.424 83.432 494.056 84.728 492.256 84.728ZM507.889 84.728C501.517 84.728 497.521 80.444 497.521 74.252C497.521 68.024 501.553 63.74 507.853 63.74C512.389 63.74 515.557 65.612 517.033 69.608C517.069 69.68 517.069 69.752 517.069 69.788C517.069 70.004 516.925 70.184 516.673 70.256L513.145 71.264C512.965 71.264 512.785 71.12 512.641 70.904C511.741 69.212 510.265 68.348 508.177 68.348C504.505 68.348 502.741 71.048 502.741 74.252C502.741 77.42 504.505 80.12 508.177 80.12C510.265 80.12 511.849 79.22 512.677 77.42C512.857 77.168 513.073 77.024 513.361 77.132L517.069 78.032C517.357 78.104 517.501 78.32 517.357 78.644C515.773 82.82 512.353 84.728 507.889 84.728ZM530.388 84.728C523.908 84.728 519.696 80.372 519.696 74.252C519.696 68.096 523.908 63.74 530.388 63.74C536.868 63.74 541.08 68.096 541.08 74.252C541.08 80.372 536.868 84.728 530.388 84.728ZM524.916 74.252C524.916 77.708 527.148 80.12 530.388 80.12C533.628 80.12 535.86 77.708 535.86 74.252C535.86 70.76 533.628 68.348 530.388 68.348C527.148 68.348 524.916 70.76 524.916 74.252ZM544.996 84.332C544.672 84.332 544.492 84.152 544.492 83.828V64.64C544.492 64.316 544.672 64.136 544.996 64.136H548.668C548.956 64.136 549.208 64.28 549.208 64.64L549.316 67.052C550.756 64.892 553.204 63.74 555.724 63.74C558.748 63.74 560.98 65.072 562.06 67.448C563.536 65 566.2 63.74 568.972 63.74C573.364 63.74 576.064 66.548 576.064 71.192V83.828C576.064 84.152 575.848 84.332 575.56 84.332H571.492C571.168 84.332 570.988 84.152 570.988 83.828V73.244C570.988 69.896 569.728 68.348 567.388 68.348C565.012 68.348 562.816 70.184 562.816 74.036V83.828C562.816 84.152 562.6 84.332 562.312 84.332H558.244C557.92 84.332 557.74 84.152 557.74 83.828V73.244C557.74 69.896 556.48 68.348 554.14 68.348C551.764 68.348 549.532 70.184 549.532 74.036V83.828C549.532 84.152 549.352 84.332 549.028 84.332H544.996Z" fill="#9397A3"/>
<path d="M11.1678 32.2569C11.1678 30.4966 12.2135 28.9026 13.8447 28.1957L27.2293 22.3743C28.3726 21.8753 29.6692 21.8753 30.8125 22.3743L44.1971 28.1957C45.8144 28.9026 46.8601 30.4966 46.8601 32.2569V45.9928C46.8601 55.7923 38.8712 63.7345 29.0139 63.7345C19.1567 63.7345 11.1678 55.7923 11.1678 45.9928V32.2569ZM40.1678 43.7751H24.6082H24.5524H17.8601V45.9928C17.8601 52.1192 22.8514 57.0813 29.0139 57.0813C35.1764 57.0813 40.1678 52.1192 40.1678 45.9928V43.7751ZM26.7832 28.2512V30.4689H24.5524C23.9389 30.4689 23.437 30.9679 23.437 31.5777V33.7954C23.437 34.4053 23.9389 34.9043 24.5524 34.9043H26.7832V37.122C26.7832 37.7319 27.2851 38.2309 27.8986 38.2309H30.1293C30.7428 38.2309 31.2447 37.7319 31.2447 37.122V34.9043H33.4755C34.0889 34.9043 34.5909 34.4053 34.5909 33.7954V31.5777C34.5909 30.9679 34.0889 30.4689 33.4755 30.4689H31.2447V28.2512C31.2447 27.6413 30.7428 27.1423 30.1293 27.1423H27.8986C27.2851 27.1423 26.7832 27.6413 26.7832 28.2512ZM17.6649 70.8034C16.7587 70.1242 15.5457 69.944 14.5139 70.4153C5.95336 74.324 0 82.9176 0 92.8834C0 95.1566 1.85433 97 4.14087 97H53.8591C56.1457 97 58 95.1566 58 92.8834C58 82.9037 52.0466 74.3101 43.4861 70.4153C42.4543 69.944 41.2413 70.1242 40.3351 70.8034L30.9937 77.7614C29.8087 78.6485 28.1635 78.6485 26.9784 77.7614L17.637 70.8034H17.6649Z" fill="#1B91DE"/>
</svg>
